<?xml version="1.0" encoding="UTF-8" standalone="no"?>
<!-- Created with Inkscape (http://www.inkscape.org/) -->

<svg
   width="20.000002mm"
   height="20.000008mm"
   viewBox="0 0 20.000002 20.000008"
   version="1.1"
   id="svg1"
   xml:space="preserve"
   xmlns:xlink="http://www.w3.org/1999/xlink"
   xmlns="http://www.w3.org/2000/svg"
   xmlns:svg="http://www.w3.org/2000/svg"><defs
     id="defs1"><linearGradient
       id="linearGradient28"><stop
         style="stop-color:#5a8dad;stop-opacity:1;"
         offset="0"
         id="stop28" /><stop
         style="stop-color:#4a7c9b;stop-opacity:1;"
         offset="0.5"
         id="stop30" /><stop
         style="stop-color:#3a6b8a;stop-opacity:1;"
         offset="1"
         id="stop29" /></linearGradient><linearGradient
       xlink:href="#linearGradient28"
       id="linearGradient154"
       gradientUnits="userSpaceOnUse"
       gradientTransform="translate(53.413814,26.458333)"
       x1="28.863543"
       y1="306.00742"
       x2="8.8635416"
       y2="326.00742" /></defs><g
     id="layer1"
     transform="translate(-62.277357,-332.46577)"><path
       id="path153"
       style="fill:url(#linearGradient154);stroke:none;stroke-width:0.132293;stroke-linecap:round;stroke-linejoin:round"
       d="m 65.877356,332.46575 h 12.8 c 1.9944,0 3.6,1.6056 3.6,3.6 v 12.8 c 0,1.9944 -1.6056,3.6 -3.6,3.6 h -12.8 c -1.9944,0 -3.600001,-1.6056 -3.600001,-3.6 v -12.8 c 0,-1.9944 1.605601,-3.6 3.600001,-3.6 z" /><path
       style="font-weight:bold;font-size:25.5941px;line-height:2;font-family:Comfortaa;-inkscape-font-specification:'Comfortaa Bold';text-align:center;letter-spacing:0px;text-anchor:middle;fill:#ffffff;stroke-width:1.75825;stroke-linecap:round;stroke-linejoin:round"
       d="m 68.041531,349.46576 h 8.727589 c 0.793417,0 1.202923,-0.40951 1.202923,-1.20292 0,-0.79342 -0.409506,-1.20293 -1.202923,-1.20293 h -6.500902 l 7.217537,-9.57219 c 0.153564,-0.20475 0.230347,-0.46069 0.230347,-0.81901 0,-0.79342 -0.409506,-1.20292 -1.202923,-1.20292 H 67.78559 c -0.793417,0 -1.202922,0.4095 -1.202922,1.20292 0,0.79342 0.409505,1.20292 1.202922,1.20292 h 6.526496 l -7.24313,9.5722 c -0.153565,0.20475 -0.230347,0.46069 -0.230347,0.81901 0,0.79341 0.409505,1.20292 1.202922,1.20292 z"
       id="text154"
       aria-label="z" /></g></svg>
