<?xml version="1.0" encoding="UTF-8" standalone="no"?>
<!-- Created with Inkscape (http://www.inkscape.org/) -->

<svg
   width="17.638716mm"
   height="17.638718mm"
   viewBox="0 0 17.638716 17.638718"
   version="1.1"
   id="svg1"
   xml:space="preserve"
   xmlns="http://www.w3.org/2000/svg"
   xmlns:svg="http://www.w3.org/2000/svg"><defs
     id="defs1" /><g
     id="layer1"
     transform="translate(-38.734011,-262.64259)"><path
       id="circle214"
       style="fill:#4a7c9b;fill-opacity:1;stroke-width:0.887;stroke-linecap:round;stroke-linejoin:round"
       d="m 47.553627,262.64256 a 8.8194447,8.8194447 0 0 0 -8.819617,8.8191 8.8194447,8.8194447 0 0 0 8.819617,8.81961 8.8194447,8.8194447 0 0 0 8.8191,-8.81961 8.8194447,8.8194447 0 0 0 -8.8191,-8.8191 z m -2.971912,4.18837 h 5.774325 c 0.524933,0 0.795817,0.27089 0.795817,0.79582 0,0.23707 -0.05085,0.4061 -0.152446,0.54157 l -4.775419,6.33295 h 4.301029 c 0.524933,0 0.796334,0.27088 0.796334,0.79581 0,0.52493 -0.271401,0.79634 -0.796334,0.79634 h -5.773807 c -0.524932,0 -0.796334,-0.27141 -0.796334,-0.79634 0,-0.23707 0.05084,-0.4061 0.152445,-0.54157 l 4.792473,-6.33294 h -4.318083 c -0.524932,0 -0.795817,-0.27088 -0.795817,-0.79582 0,-0.52493 0.270885,-0.79582 0.795817,-0.79582 z" /></g></svg>
