<?xml version="1.0" encoding="UTF-8" standalone="no"?>
<!-- Created with Inkscape (http://www.inkscape.org/) -->

<svg
   width="25.736542mm"
   height="6.4515934mm"
   viewBox="0 0 25.736542 6.4515934"
   version="1.1"
   id="svg1"
   xml:space="preserve"
   xmlns:xlink="http://www.w3.org/1999/xlink"
   xmlns="http://www.w3.org/2000/svg"
   xmlns:svg="http://www.w3.org/2000/svg"><defs
     id="defs1" /><g
     id="layer1"
     transform="translate(-143.6137,-262.48716)"><path
       id="path234"
       style="font-weight:300;font-size:6.35px;line-height:2;font-family:Comfortaa;-inkscape-font-specification:'Comfortaa Light';text-align:center;text-anchor:middle;stroke:none;stroke-width:0.608542;stroke-linecap:round;stroke-linejoin:round"
       d="m 157.19637,250.5636 c 0.1143,0 0.1905,-0.0762 0.1905,-0.1905 v -1.9304 c 0,-0.59055 0.45085,-1.0287 1.0922,-1.0287 0.2413,0 0.4318,0.0953 0.47625,-0.1016 0.0445,-0.19685 -0.15875,-0.26035 -0.47625,-0.26035 -0.4572,0 -0.8509,0.23495 -1.0922,0.6223 v -0.3937 c 0,-0.1143 -0.0762,-0.1905 -0.1905,-0.1905 -0.1143,0 -0.1905,0.0762 -0.1905,0.1905 v 3.09245 c 0,0.1143 0.0762,0.1905 0.1905,0.1905 z m 2.62254,-1.73355 c 0,-0.8128 0.60325,-1.4224 1.397,-1.4224 0.3429,0 0.65405,0.1143 0.889,0.31115 l -2.00025,1.9939 c -0.1778,-0.2413 -0.28575,-0.5461 -0.28575,-0.88265 z m 1.397,1.41605 c -0.3175,0 -0.6096,-0.1016 -0.8382,-0.27305 l 1.9812,-1.97485 c 0.15875,0.2286 0.24765,0.51435 0.24765,0.83185 0,0.80645 -0.5969,1.41605 -1.39065,1.41605 z m -1.6764,0.42545 c 0.0508,0 0.0952,-0.0127 0.1397,-0.0572 l 0.40005,-0.40005 c 0.3048,0.2413 0.6985,0.38735 1.13665,0.38735 1.00965,0 1.77165,-0.762 1.77165,-1.77165 0,-0.42545 -0.13335,-0.80645 -0.36195,-1.1049 l 0.31115,-0.3048 c 0.0953,-0.1016 0.0445,-0.3302 -0.1397,-0.3302 -0.0698,0 -0.1143,0.0254 -0.14605,0.0635 l -0.2921,0.2921 c -0.3048,-0.24765 -0.6985,-0.3937 -1.143,-0.3937 -1.016,0 -1.778,0.762 -1.778,1.778 0,0.42545 0.13335,0.80645 0.3683,1.11125 l -0.4064,0.40005 c -0.127,0.127 -0.0317,0.3302 0.1397,0.3302 z m 4.98475,-0.10795 c 0.0762,0 0.14605,-0.0381 0.1778,-0.12065 l 0.8382,-2.68605 0.8636,2.68605 c 0.019,0.0762 0.0952,0.12065 0.1778,0.12065 0.0889,0 0.15875,-0.0445 0.18415,-0.12065 l 1.02235,-3.07975 c 0.0572,-0.127 0,-0.27305 -0.1524,-0.27305 -0.0762,0 -0.14605,0.0381 -0.1778,0.1143 l -0.88265,2.6543 -0.83185,-2.6162 c -0.0317,-0.0952 -0.0952,-0.1524 -0.1905,-0.1524 -0.0953,0 -0.1651,0.0635 -0.1905,0.1524 l -0.8255,2.667 -0.89535,-2.7051 c -0.0317,-0.0762 -0.10795,-0.1143 -0.1778,-0.1143 -0.127,0 -0.18415,0.0889 -0.14605,0.27305 l 1.0287,3.07975 c 0.0254,0.0762 0.0952,0.12065 0.1778,0.12065 z m 3.6068,1.4859 h 1.0287 c 0.10795,0 0.1905,-0.0825 0.1905,-0.1905 v -6.0706 c 0,-0.10795 -0.0825,-0.1905 -0.1905,-0.1905 h -1.0287 c -0.10795,0 -0.19685,0.0825 -0.19685,0.1905 0,0.10795 0.0889,0.19685 0.19685,0.19685 h 0.8382 v 5.6769 h -0.8382 c -0.10795,0 -0.19685,0.0889 -0.19685,0.19685 0,0.10795 0.0889,0.1905 0.19685,0.1905 z m -22.39009,-1.4859 h 2.16535 c 0.19685,0 0.29845,-0.1016 0.29845,-0.29845 0,-0.19685 -0.1016,-0.29845 -0.29845,-0.29845 h -1.6129 l 1.7907,-2.3749 c 0.0381,-0.0508 0.0571,-0.1143 0.0571,-0.2032 0,-0.19685 -0.1016,-0.29845 -0.29845,-0.29845 h -2.16535 c -0.19685,0 -0.29845,0.1016 -0.29845,0.29845 0,0.19685 0.1016,0.29845 0.29845,0.29845 h 1.61925 l -1.79705,2.3749 c -0.0381,0.0508 -0.0572,0.1143 -0.0572,0.2032 0,0.19685 0.1016,0.29845 0.29845,0.29845 z m 4.69896,-2.95275 c 0.5715,0 0.92075,0.38735 0.99695,0.93345 h -2.11455 c 0.0952,-0.55245 0.48895,-0.93345 1.1176,-0.93345 z m 0.0953,2.97815 c 0.38735,0 0.8636,-0.15875 1.14935,-0.38735 0.1397,-0.10795 0.13335,-0.2794 -0.0127,-0.4064 -0.10795,-0.0889 -0.27305,-0.0889 -0.40005,0.006 -0.17145,0.127 -0.47625,0.2413 -0.7366,0.2413 -0.64135,0 -1.12395,-0.4064 -1.2192,-0.9906 h 2.413 c 0.17145,0 0.2921,-0.1143 0.2921,-0.2794 0,-1.0033 -0.59055,-1.70815 -1.58115,-1.70815 -1.0033,0 -1.7145,0.73025 -1.7145,1.7653 0,1.0287 0.7493,1.75895 1.80975,1.75895 z m 3.75915,-0.5715 c -0.64135,0 -1.1303,-0.508 -1.1303,-1.18745 0,-0.67945 0.48895,-1.1938 1.1303,-1.1938 0.64135,0 1.12395,0.51435 1.12395,1.1938 0,0.67945 -0.4826,1.18745 -1.12395,1.18745 z m -0.127,0.5715 c 0.50165,0 0.93345,-0.22225 1.22555,-0.57785 v 0.23495 c 0,0.18415 0.1397,0.32385 0.32385,0.32385 0.18415,0 0.32385,-0.1397 0.32385,-0.32385 v -1.41605 c -0.006,-1.0033 -0.75565,-1.7653 -1.74625,-1.7653 -0.99695,0 -1.7526,0.762 -1.7526,1.7653 0,1.0033 0.6985,1.75895 1.6256,1.75895 z m -10.36316,1.4605 h 1.0287 c 0.10795,0 0.19685,-0.0825 0.19685,-0.1905 0,-0.10795 -0.0889,-0.19685 -0.19685,-0.19685 h -0.8382 v -5.6769 h 0.8382 c 0.10795,0 0.19685,-0.0889 0.19685,-0.19685 0,-0.10795 -0.0889,-0.1905 -0.19685,-0.1905 h -1.0287 c -0.10795,0 -0.1905,0.0825 -0.1905,0.1905 v 6.0706 c 0,0.10795 0.0825,0.1905 0.1905,0.1905 z" /><use
       x="0"
       y="0"
       xlink:href="#path234"
       id="use244"
       transform="translate(0,16.889236)"
       style="fill:#4a7c9b;fill-opacity:1" /></g></svg>
