<?xml version="1.0" encoding="UTF-8" standalone="no"?>
<svg
   width="1200"
   height="630"
   viewBox="0 0 1200 630"
   version="1.1"
   id="svg8"
   sodipodi:docname="og-image.svg"
   xml:space="preserve"
   inkscape:version="1.4.3 (0d15f75042, 2025-12-25)"
   inkscape:export-filename="og-image.png"
   inkscape:export-xdpi="96"
   inkscape:export-ydpi="96"
   xmlns:inkscape="http://www.inkscape.org/namespaces/inkscape"
   xmlns:sodipodi="http://sodipodi.sourceforge.net/DTD/sodipodi-0.dtd"
   xmlns="http://www.w3.org/2000/svg"
   xmlns:svg="http://www.w3.org/2000/svg"><sodipodi:namedview
     id="namedview8"
     pagecolor="#ffffff"
     bordercolor="#000000"
     borderopacity="0.25"
     inkscape:showpageshadow="2"
     inkscape:pageopacity="0.0"
     inkscape:pagecheckerboard="0"
     inkscape:deskcolor="#d1d1d1"
     inkscape:zoom="0.88730159"
     inkscape:cx="823.28265"
     inkscape:cy="386.56529"
     inkscape:window-width="2560"
     inkscape:window-height="1403"
     inkscape:window-x="0"
     inkscape:window-y="0"
     inkscape:window-maximized="1"
     inkscape:current-layer="svg8" /><defs
     id="defs2"><pattern
       id="dots"
       x="0"
       y="0"
       width="32"
       height="32"
       patternUnits="userSpaceOnUse"><circle
         cx="2"
         cy="2"
         r="1.5"
         fill="#4A7C9B"
         fill-opacity="0.18"
         id="circle1" /></pattern><linearGradient
       id="fade"
       x1="0"
       y1="0"
       x2="0"
       y2="1"><stop
         offset="0"
         stop-color="#ffffff"
         stop-opacity="0"
         id="stop1" /><stop
         offset="1"
         stop-color="#ffffff"
         stop-opacity="1"
         id="stop2" /></linearGradient></defs><rect
     width="1200"
     height="630"
     fill="#ffffff"
     id="rect2" /><rect
     width="1200"
     height="630"
     fill="url(#dots)"
     id="rect3" /><path
     id="use243"
     style="font-weight:300;font-size:6.35px;line-height:2;font-family:Comfortaa;-inkscape-font-specification:'Comfortaa Light';text-align:center;text-anchor:middle;fill:#333333;fill-opacity:1;stroke:none;stroke-width:2.3;stroke-linecap:round;stroke-linejoin:round"
     d="m 316.4358,230 c 1.656,0 2.76,-1.104 2.76,-2.75999 v -27.96797 c 0,-8.55599 6.53199,-14.90398 15.82398,-14.90398 3.49599,0 6.25599,1.38068 6.89999,-1.472 0.64473,-2.852 -2.3,-3.772 -6.89999,-3.772 -6.62399,0 -12.32799,3.404 -15.82398,9.01599 v -5.70399 c 0,-1.656 -1.104,-2.76 -2.76,-2.76 -1.656,0 -2.76,1.104 -2.76,2.76 v 44.80395 c 0,1.65599 1.104,2.75999 2.76,2.75999 z m 37.9958,-25.11597 c 0,-11.77598 8.73999,-20.60797 20.23998,-20.60797 4.96799,0 9.47599,1.65599 12.87998,4.50799 l -28.97996,28.88797 c -2.576,-3.496 -4.14,-7.91199 -4.14,-12.78799 z m 20.23998,20.51598 c -4.6,0 -8.83199,-1.472 -12.14399,-3.956 l 28.70397,-28.61196 c 2.3,3.31199 3.588,7.45199 3.588,12.05198 0,11.68399 -8.64799,20.51598 -20.14798,20.51598 z m -24.28797,6.16399 c 0.736,0 1.37927,-0.184 2.02399,-0.82873 l 5.796,-5.79599 c 4.41599,3.496 10.11999,5.61199 16.46798,5.61199 14.62798,0 25.66797,-11.03998 25.66797,-25.66797 0,-6.16399 -1.932,-11.68398 -5.24399,-16.00798 l 4.50799,-4.41599 c 1.38073,-1.472 0.64473,-4.784 -2.024,-4.784 -1.01127,0 -1.656,0.368 -2.116,0.92 l -4.23199,4.232 c -4.416,-3.588 -10.11999,-5.704 -16.55998,-5.704 -14.71998,0 -25.75997,11.03999 -25.75997,25.75997 0,6.164 1.932,11.68399 5.33599,16.09998 l -5.88799,5.796 c -1.84,1.84 -0.45927,4.78399 2.024,4.78399 z M 422.60352,230 c 1.104,0 2.116,-0.552 2.576,-1.748 l 12.14399,-38.91595 12.51198,38.91595 c 0.27523,1.104 1.37927,1.748 2.576,1.748 1.288,0 2.3,-0.64472 2.668,-1.748 l 14.81198,-44.61994 c 0.82873,-1.84 0,-3.956 -2.208,-3.956 -1.104,0 -2.116,0.552 -2.576,1.656 l -12.78798,38.45595 -12.05199,-37.90395 c -0.45927,-1.37931 -1.37927,-2.208 -2.75999,-2.208 -1.38073,0 -2.392,0.92 -2.76,2.208 l -11.95999,38.63995 -12.97198,-39.19195 c -0.45927,-1.104 -1.564,-1.656 -2.576,-1.656 -1.84,0 -2.668,1.288 -2.116,3.956 l 14.90399,44.61994 c 0.368,1.104 1.37927,1.748 2.57599,1.748 z m 52.25594,21.52798 h 14.90399 c 1.56399,0 2.75999,-1.19527 2.75999,-2.76 v -87.9519 c 0,-1.564 -1.19527,-2.75999 -2.75999,-2.75999 h -14.90399 c -1.564,0 -2.85199,1.19527 -2.85199,2.75999 0,1.564 1.28799,2.852 2.85199,2.852 h 12.14399 v 82.2479 h -12.14399 c -1.564,0 -2.85199,1.288 -2.85199,2.852 0,1.564 1.28799,2.76 2.85199,2.76 z M 150.46799,230 h 31.37196 c 2.852,0 4.324,-1.472 4.324,-4.32399 0,-2.852 -1.472,-4.324 -4.324,-4.324 h -23.36797 l 25.94397,-34.40796 c 0.552,-0.736 0.82727,-1.656 0.82727,-2.94399 0,-2.852 -1.472,-4.324 -4.32399,-4.324 h -31.37197 c -2.85199,0 -4.32399,1.472 -4.32399,4.324 0,2.85199 1.472,4.32399 4.32399,4.32399 h 23.45998 l -26.03597,34.40796 c -0.552,0.736 -0.82873,1.656 -0.82873,2.944 0,2.85199 1.472,4.32399 4.32399,4.32399 z m 68.07935,-42.77995 c 8.27999,0 13.33998,5.612 14.44398,13.52399 h -30.63596 c 1.37927,-8.00399 7.08399,-13.52399 16.19198,-13.52399 z m 1.38072,43.14795 c 5.612,0 12.51199,-2.3 16.65199,-5.61199 2.02399,-1.564 1.93199,-4.048 -0.184,-5.88799 -1.564,-1.288 -3.956,-1.288 -5.796,0.087 -2.484,1.84 -6.89999,3.496 -10.67199,3.496 -9.29198,0 -16.28398,-5.888 -17.66398,-14.35199 h 34.95996 c 2.484,0 4.232,-1.65599 4.232,-4.04799 0,-14.53598 -8.55599,-24.74797 -22.90797,-24.74797 -14.53599,0 -24.83998,10.57999 -24.83998,25.57597 0,14.90398 10.85599,25.48397 26.21997,25.48397 z m 54.46321,-8.27999 c -9.29199,0 -16.37598,-7.35999 -16.37598,-17.20398 0,-9.84399 7.08399,-17.29598 16.37598,-17.29598 9.29199,0 16.28398,7.45199 16.28398,17.29598 0,9.84399 -6.99199,17.20398 -16.28398,17.20398 z m -1.83999,8.27999 c 7.26799,0 13.52398,-3.21999 17.75597,-8.37199 v 3.404 c 0,2.66799 2.024,4.69199 4.692,4.69199 2.668,0 4.69199,-2.024 4.69199,-4.69199 v -20.51598 c -0.087,-14.53598 -10.94798,-25.57597 -25.29997,-25.57597 -14.44398,0 -25.39197,11.03999 -25.39197,25.57597 0,14.53598 10.11999,25.48397 23.55198,25.48397 z m -150.14326,21.15998 h 14.90399 c 1.56399,0 2.85199,-1.19527 2.85199,-2.76 0,-1.564 -1.288,-2.852 -2.85199,-2.852 h -12.14399 v -82.2479 h 12.14399 c 1.56399,0 2.85199,-1.288 2.85199,-2.852 0,-1.564 -1.288,-2.75999 -2.85199,-2.75999 h -14.90399 c -1.56399,0 -2.75999,1.19527 -2.75999,2.75999 v 87.9519 c 0,1.564 1.19527,2.76 2.75999,2.76 z" /><rect
     x="0"
     y="500"
     width="1200"
     height="130"
     fill="url(#fade)"
     id="rect4" /><rect
     x="0"
     y="0"
     width="12"
     height="630"
     fill="#4A7C9B"
     id="rect5" /><text
     x="120"
     y="330"
     font-size="44px"
     font-weight="500"
     fill="#333333"
     id="text6"
     style="font-family:Comfortaa, system-ui, sans-serif"><tspan
       style="font-style:normal;font-variant:normal;font-weight:normal;font-stretch:normal;font-family:Comfortaa;-inkscape-font-specification:Comfortaa"
       id="tspan8">Your partner in digital transformation</tspan></text><text
     x="120"
     y="400"
     font-size="28px"
     font-weight="400"
     fill="#4a7c9b"
     id="text7"
     style="font-family:Comfortaa, system-ui, sans-serif"><tspan
       sodipodi:role="line"
       id="tspan9"
       x="120"
       y="400"
       style="font-style:normal;font-variant:normal;font-weight:normal;font-stretch:normal;font-family:Comfortaa;-inkscape-font-specification:Comfortaa">We create custom software solutions that seamlessly integrate with</tspan><tspan
       sodipodi:role="line"
       id="tspan10"
       x="120"
       y="435"
       style="font-style:normal;font-variant:normal;font-weight:normal;font-stretch:normal;font-family:Comfortaa;-inkscape-font-specification:Comfortaa">your business processes and empower your team to thrive</tspan></text><text
     x="120"
     y="540"
     font-family="Comfortaa, system-ui, sans-serif"
     font-size="22px"
     font-weight="400"
     fill="#5a5a5a"
     id="text8"><tspan
       style="font-style:normal;font-variant:normal;font-weight:normal;font-stretch:normal;font-family:Comfortaa;-inkscape-font-specification:Comfortaa"
       id="tspan11">zearow.com</tspan></text></svg>
