<svg xmlns="http://www.w3.org/2000/svg" width="734.045" height="799.946" viewBox="0 0 734.045 799.946" xmlns:xlink="http://www.w3.org/1999/xlink" role="img" artist="Katerina Limpitsouni" source="https://undraw.co/"><g transform="translate(-626.272 -202)"><g transform="translate(626.272 202)"><path d="M23.753,0H0L5.633,26.053H30.158Z" transform="translate(567.58 256.72)" fill="#ed9da0"/><path d="M302.772,579.693a1.405,1.405,0,0,1-1.409,1.409H1.409a1.409,1.409,0,0,1,0-2.818H301.362A1.405,1.405,0,0,1,302.772,579.693Z" transform="translate(431.273 217.818)" fill="#d6d6e3"/><path d="M495.259,166.712h97.107a14.82,14.82,0,0,0,14.8-14.8V54.8a14.82,14.82,0,0,0-14.8-14.8H495.259a14.82,14.82,0,0,0-14.8,14.8V151.91A14.82,14.82,0,0,0,495.259,166.712ZM592.366,42.368A12.434,12.434,0,0,1,604.8,54.8V151.91a12.434,12.434,0,0,1-12.434,12.434H524.345a41.52,41.52,0,0,1-41.52-41.52V54.8a12.434,12.434,0,0,1,12.434-12.434Z" transform="translate(-452.035 7.369)" fill="#f2f2f2"/><path d="M495.259,166.712h97.107a14.82,14.82,0,0,0,14.8-14.8V54.8a14.82,14.82,0,0,0-14.8-14.8H495.259a14.82,14.82,0,0,0-14.8,14.8V151.91A14.82,14.82,0,0,0,495.259,166.712Z" transform="translate(-452.035 7.369)" fill="#3A6A87"/><ellipse cx="13.027" cy="13.027" rx="13.027" ry="13.027" transform="translate(79.343 0)" fill="#3A6A87"/><path d="M387.787,328.426h97.107a14.82,14.82,0,0,0,14.8-14.8V216.517a14.82,14.82,0,0,0-14.8-14.8H387.787a14.82,14.82,0,0,0-14.8,14.8v97.107A14.82,14.82,0,0,0,387.787,328.426Zm97.107-124.344a12.434,12.434,0,0,1,12.434,12.434v97.107a12.434,12.434,0,0,1-12.434,12.434h0A109.541,109.541,0,0,1,375.352,216.517h0a12.434,12.434,0,0,1,12.434-12.434h97.107Z" transform="translate(-150.974 -16.974)" fill="#090814"/><ellipse cx="13.027" cy="13.027" rx="13.027" ry="13.027" transform="translate(272.932 137.37)" fill="#d6d6e3"/><path d="M432.292,252.741a8.646,8.646,0,0,1-10.368-6.295c-.958-4.672,3.178-9.749,7.935-9.783a8.582,8.582,0,0,1,8.218,9.579c-.5,3.014-2.359,5.64-4.048,8.1-1.882,2.746-3.85,5.433-5.878,8.073-4.588,5.971-9.485,11.7-14.368,17.428a1.8,1.8,0,0,0,1.256,3.032l27.787,2.542c2.276.208,2.262-3.346,0-3.553l-27.787-2.542,1.256,3.032c5.381-6.313,10.755-12.636,15.765-19.25a116.647,116.647,0,0,0,6.877-9.772c1.814-2.989,3.189-6.4,2.666-9.951-.9-6.124-6.991-11.043-13.2-10.15A12.217,12.217,0,0,0,418.366,246.6c.976,6.771,8.375,11.291,14.871,9.564,2.207-.587,1.271-4.015-.944-3.426h0Z" transform="translate(-143.547 -11.186)" fill="#090814"/><path d="M575.259,428.712h97.107a14.82,14.82,0,0,0,14.8-14.8V316.8a14.82,14.82,0,0,0-14.8-14.8H575.259a14.82,14.82,0,0,0-14.8,14.8V413.91A14.82,14.82,0,0,0,575.259,428.712Zm97.107-124.344A12.434,12.434,0,0,1,684.8,316.8V413.91a12.434,12.434,0,0,1-12.434,12.434h0A109.541,109.541,0,0,1,562.824,316.8h0a12.434,12.434,0,0,1,12.434-12.434Z" transform="translate(-560.456 1.501)" fill="#090814"/><ellipse cx="13.027" cy="13.027" rx="13.027" ry="13.027" transform="translate(50.922 256.132)" fill="#d6d6e3"/><path d="M605.265,338.719c6.078-3.091,14.163-.829,16.384,5.99a9.121,9.121,0,0,1-9.494,12.214v3.553a16.213,16.213,0,0,1,10.757,4.614,10.951,10.951,0,0,1,2.794,10.285,8.726,8.726,0,0,1-16.472.8c-.845-2.093-4.283-1.178-3.426.944,3.025,7.489,12.25,10.551,18.877,5.574,6.762-5.079,6.075-15.074.244-20.606a20.256,20.256,0,0,0-12.773-5.159c-2.3-.149-2.239,3.329,0,3.553a12.579,12.579,0,0,0,10.98-4.951,12.754,12.754,0,0,0,1.94-11.761c-2.943-9.081-13.439-12.264-21.6-8.113-2.038,1.037-.242,4.1,1.793,3.068h0Z" transform="translate(-552.697 7.37)" fill="#090814"/><path d="M78.259,435.712h97.107a14.82,14.82,0,0,0,14.8-14.8V323.8a14.82,14.82,0,0,0-14.8-14.8H78.259a14.82,14.82,0,0,0-14.8,14.8V420.91A14.82,14.82,0,0,0,78.259,435.712Z" transform="translate(502.605 166.172)" fill="#d6d6e3"/><g transform="translate(580.119 289.454)"><path d="M132.2,342.184a12.035,12.035,0,0,1-4.055-18L112.051,216l23.794.152,9.929,106.2A12.1,12.1,0,0,1,132.2,342.184Z" transform="translate(-94.807 -140.415)" fill="#ed9da0"/><path d="M143.273,152.25s7.112-1.935,8.145,13.646c.828,12.474,13.257,88.472,9.782,105.476a10.96,10.96,0,0,1,6.2,11.922l-35.929-3.229c-4.929-6.52-4.954-13.824-2.13-15.349l-2.885-22.394-16.677-72.948,28.333-15.817,5.165-1.307Z" transform="translate(-109.775 -152.174)" fill="#f2f2f2"/></g><g transform="translate(538.554 694.522)"><path d="M177.223,582.871H158.908L150.2,512.226h27.031Z" transform="translate(-121.889 -512.226)" fill="#ed9da0"/><path d="M175.962,562.336V549.919l4.815.294,19.6,1.161,4.536.279,3.468,41.584.186,2.229h-13l-.418-2.214-1.889-10.063-4.877,10.063-1.068,2.214H152.833a7.79,7.79,0,0,1-7.741-7.756c-1.455-6.8,27.217-21.489,30.871-25.375Z" transform="translate(-145.038 -490.042)" fill="#2f2e41"/></g><g transform="translate(613.872 702.094)"><path d="M139.845,563.335,119,567.061,99.574,507.033,120.5,500.62Z" transform="translate(-91.719 -500.62)" fill="#ed9da0"/><path d="M111.743,555.667l-3.076-12.215,4.347-1.033L130.7,538.18l4.1-.971,13.38,39.959.717,2.142-11.545,3.57-.92-2.063-4.17-9.382-1.836,11.239-.4,2.471-36.062-3.685c-1.828.565-5.243-.644-5.243-.644s.548-4.507,0-6.685c8.043-8.587,20.742-13.639,23.023-18.465Z" transform="translate(-88.72 -488.32)" fill="#2f2e41"/></g><path d="M94.874,313.122l-.352-3.694,15.186-41.635,64.719,12.479s33.356,41.091,25.938,68.288c-2.012,7.376-6.311,94.315-5.017,97.111,29.812,64.388,33.08,141.1,33.08,141.1s-8.036-4.073-24.176,0c-4.211,1.063-49.215-162.389-49.215-162.389s1.411,9.014,3.378,22.72c6.077,42.342,15.623,127.581,7.142,131.995a43.012,43.012,0,0,1-21.967,4.758s-35-105.17-27.584-129.894" transform="translate(427.555 158.58)" fill="#2f2e41"/><path d="M151.671,158.344l16.75-20.137,25.2-1.36,13.7,20.313,7.592,21.413h0a108.821,108.821,0,0,1,5.568,65.187l-11.662,52.121s-1.8,6.142,2.911,6.88,4.142,9.791,4.142,9.791,10.664,13.785,0,27.5-85.308-42.7-85.308-42.7l-.409-64.282s-23.759-31.911,1.828-50.187l19.679-24.53Z" transform="translate(402.548 134.456)" fill="#f2f2f2"/><path d="M143.259,365.712h97.107a14.82,14.82,0,0,0,14.8-14.8V253.8a14.82,14.82,0,0,0-14.8-14.8H143.259a14.82,14.82,0,0,0-14.8,14.8V350.91A14.82,14.82,0,0,0,143.259,365.712Z" transform="translate(360.63 153.276)" fill="#3A6A87"/><g transform="translate(515.528 291.991)"><path d="M173.611,325.164a12.035,12.035,0,0,1,2.478-18.287l22.645-107,22.247,8.441L193.247,311.31a12.1,12.1,0,0,1-19.637,13.853Z" transform="translate(-170.501 -145.923)" fill="#ed9da0"/><path d="M191.566,154.564s-6.714-3.039-10.208,12.18c-2.8,12.184-27.134,85.245-26.4,102.586a10.96,10.96,0,0,0-8.011,10.788l35.986,2.516c5.9-5.655,7.086-12.862,4.54-14.817l6.4-21.652,28.047-69.375-25.463-20.114-4.892-2.111Z" transform="translate(-143.541 -154.316)" fill="#f2f2f2"/></g><ellipse cx="31.822" cy="31.822" rx="31.822" ry="31.822" transform="translate(545.375 198.49)" fill="#ed9da0"/><path d="M187.407,98.844c-.083,0-.284,0-.663.012C185.643,98.927,187.135,98.867,187.407,98.844Z" transform="translate(359.839 127.455)" fill="#2f2e41"/><path d="M963.121,339.846h0a25.54,25.54,0,0,0-5.253.558,21.821,21.821,0,0,0-10.027-2.468h-.91c-17.547,0-31.772,16.955-31.772,37.869h5.88l.95-7.717,1.392,7.717h4.9A78.752,78.752,0,0,0,926,394.778v38.545h8.889l5.147-14.281-1.287,14.281h57.139l4.679-12.983-1.17,12.983h6.433V403.058C1005.834,368.147,986.711,339.846,963.121,339.846Z" transform="translate(-367.913 -162.019)" fill="#2f2e41"/></g></g></svg>