<svg xmlns="http://www.w3.org/2000/svg" width="800" height="600.11" viewBox="0 0 800 600.11" xmlns:xlink="http://www.w3.org/1999/xlink" role="img" artist="Katerina Limpitsouni" source="https://undraw.co/"><g transform="translate(-326.033 -171.654)"><g transform="translate(841.841 228.306) rotate(47)"><path d="M71.479.8C49.926-2.436,26.322,4.046,12.229,21.4A54.455,54.455,0,0,0,.252,49.8,49.8,49.8,0,0,0,7.047,79.843c6.276,10.94,15.6,19.808,25.211,27.807,1.5,1.247,3.667-.9,2.156-2.156C19.1,92.747,3.209,76.418,3.036,55.15,2.868,34.346,16.67,15.82,35.514,7.9A65.9,65.9,0,0,1,70.668,3.745c1.92.289,2.748-2.649.811-2.941h0Z" transform="translate(0 13.138)" fill="#e6e6e6"/><path d="M.687,2.9,21.25,16.884V14.251A31.852,31.852,0,0,0,6.827,26.859C5.8,28.538,8.436,30.071,9.46,28.4A29.122,29.122,0,0,1,22.789,16.884c1.137-.493.839-2.063,0-2.633L2.226.265C.6-.841-.928,1.8.687,2.9h0Z" transform="translate(52.9 0)" fill="#e6e6e6"/></g><g transform="translate(643.942 352.66)"><rect width="126.492" height="126.492" rx="16" transform="translate(-0.004 0)" fill="#f2f2f2"/><g transform="translate(39.853 28.828)"><path d="M46.155,23.077a27.992,27.992,0,0,1-.448,4.989,24.518,24.518,0,0,1-2.426,6.017c-2.052,3.645-4.253,5.007-6.062,8.576-.311.241-.631.457-.956.669-.65.419-.721,2.472-1.411,2.826,0,0-.01,0-.014.01a2.61,2.61,0,0,0-.356,1.187v.01c-.348,2.04-.65,6.188-1,8.642-.047.3-.09.57-.136.81-.118.65-.24,1.065-.377,1.116-1.682.65-2.4-.241-4.24,0-.989.132-6.038.942-7.065.942-2.915,0-4.493-.993-6.852-2.058-.165-.071-.33-.146-.5-.221-.064-.024-.117-.052-.178-.075-.677-.287-1.318-7.531-1.954-10.272a.017.017,0,0,1,0-.014c-.132-.57-.264-.942-.4-1.017l-.1-.056c-.419-.241-.829-.5-1.23-.777-2.426-4.041-7.112-7.886-9.426-14.171A26.488,26.488,0,0,1,0,23.077a23.077,23.077,0,1,1,46.155,0Z" transform="translate(0.368 0.905)" fill="#3A6A87"/><path d="M46.046,28.976a24.519,24.519,0,0,1-2.426,6.015c-2.052,3.645-4.253,5.007-6.062,8.576-1.2,2.378-2.229,5.737-2.929,11.4-.042.334.047.716,0,1.045-.107.73.024.6-.419,1.258-.2.113-.325-.047-.392-.356a9.834,9.834,0,0,1-.028-2.364,31.133,31.133,0,0,1,1.026-6.278v-.01c.113-.41.236-.806.356-1.187,2.181-6.641,6.2-9.65,8.025-13.126C52.772,15.73,35.079-4.6,15.591,2.468c-1.045.382-.989.6-1.045.631a21.251,21.251,0,0,0-4.078,1.879c-8.635,5.875-11.734,17.5-7.839,27.082,2.109,5.185,6.528,8.11,9.386,14q.257.513.495,1.074a.017.017,0,0,0,0,.014A28.793,28.793,0,0,1,14.647,57.5c0,.064.01.123.01.184.169.014.334.024.495.038,2.5.217,4.121.617,4.96.183l.923.094c.306.428,5.452-.094,6.273-.1h.212a57.345,57.345,0,0,0,6.164-.175c.1-.01.212-.024.316-.038a.551.551,0,0,1,.419.631,4.983,4.983,0,0,1-1.252,2.506c-.965.565-16.7.852-18.2-.207a2.36,2.36,0,0,1-.834-2.822c-.028-.132-.606-.508-.631-.631-.282-1.6.052-5.665-1.879-10.248a12.367,12.367,0,0,0-.838-1.624C8.359,41.245,3.674,37.4,1.361,31.111A23.514,23.514,0,0,1,.12,20.56C.953,11.706,8.591,2.994,17.162.794,35.1-3.812,50.247,12.455,46.046,28.976Z" transform="translate(0.024 -0.001)" fill="#010001"/><path d="M19.3,0c1.493,1.42.7,1.9,0,3.556-.877-.2-15.895.763-17.987,0A2.131,2.131,0,0,1,.684,0,83.854,83.854,0,0,0,19.3,0Z" transform="translate(14.119 61.305)" fill="#010001"/><path d="M20.495.418c.588,1.306-.537,2.108-1.046,3.137L18.4,3.765,1.88,3.556C.885,3.364.254,1.971,0,1.046A.617.617,0,0,1,.312.418L1.671,0A148.617,148.617,0,0,0,18.09.418a2.39,2.39,0,0,1,2.405,0Z" transform="translate(13.761 65.07)" fill="#010001"/><path d="M8.419,24.179H7.986V17.1L0,.185.392,0,8.419,17Z" transform="translate(12.275 24.292)" fill="#fff"/><path d="M.356,25.327,0,17.456l.008-.03L4.247,0l.421.1L.436,17.5l.352,7.809Z" transform="translate(27.088 23.156)" fill="#fff"/></g></g><g transform="translate(326.033 370.876)"><path d="M327.3,325.69c70.724,0,14.187,46.518,20.4,61.573,3.406,8.247,79.79-33.124,79.79,0,0,42.98-21.825,62.785-56.75,71.772-38.731,9.967-93.926,6.27-152.659,6.27-111.027,0-130.861,30.215-130.861-61.037,0-22.357,13.9-62.844,26.772-72.187C153.107,303.688,243.476,325.69,327.3,325.69Z" transform="translate(-87.221 -72.135)" fill="#f2f2f2"/><g transform="translate(43.046 0)"><path d="M943.888,301.269l5.533,27.173,27.086,45.524,33.4-14.267s45.389-47.561,16.868-54.357a25.01,25.01,0,0,1-9.471-4.22c-5.606-4.22-7.361-10.366-7.361-16.377,0-9.925,4.637-19.493,4.637-19.493l-58.43-18.4a93.322,93.322,0,0,1,4.2,23.676c.442,15.948-5.471,23.749-10.317,27.491a17.717,17.717,0,0,1-6.146,3.251Z" transform="translate(-888.737 -171.711)" fill="#ed9da0"/><path d="M939.782,249.351a46,46,0,1,0,13.452-32.716A46,46,0,0,0,939.782,249.351Z" transform="translate(-879.099 -181.621)" fill="#ed9da0"/><path d="M1001.487,336.547s23.894-33.122,14.892-45.99l40.372,16.549s24.3-2.945,33.122,33.318a62.716,62.716,0,0,1,1.509,18.4c-.322,5.471.417,15.1,6.648,27.552,9.976,19.934,7.7,65.68-12.685,70.218s-27.626,2.258-27.626,2.258,2.711,82.9,14.488,92.41-29.945,11.042-29.945,11.042l-54.76.735-71.037-4.756s8.081-39.639,10.792-61.831,9.065-69.458,9.065-69.458l-46.211-62.564s-8.146-37.82,20.388-54.578S949.755,289,949.755,289s28.632,46.616,43.573,48.91C993.329,337.91,999.009,340.192,1001.487,336.547Z" transform="translate(-889.035 -162.153)" fill="#3A6A87"/><path d="M937.882,338.47s.454,14.954-2.257,20.855-12.685,38.507-12.685,38.507h22.646s-12.267-13.139-11.323-19.481S937.882,338.47,937.882,338.47Z" transform="translate(-772.436 -150.936)" opacity="0.1"/><path d="M931.023,442.155s50.026-12.267,54.688-22.658,17.53-33.726,17.53-33.726l-5.275-7.115-24.338,19.1s-28.987,23.1-42.58,25.369S931.023,442.155,931.023,442.155Z" transform="translate(-832.617 -141.823)" fill="#ed9da0"/><path d="M931.023,442.155s50.026-12.267,54.688-22.658,17.53-33.726,17.53-33.726l-5.275-7.115-24.338,19.1s-28.987,23.1-42.58,25.369S931.023,442.155,931.023,442.155Z" transform="translate(-832.617 -141.823)" opacity="0.05"/><path d="M945.461,382.463V409.6h4.367a126.973,126.973,0,0,1,61.556,15.927l8.208,4.56,2.2,1.227,14.046-31.626L1022.7,387.91h-.675c-3.214.307-17.113,1.472-23-.515-5.594-1.9-12.538-7.925-29.012-3.68-8.121,2.073-15.052,11.176-22.929,8.33Z" transform="translate(-890.31 -141.014)" fill="#ed9da0"/><path d="M984.489,347.867l-9.065,10.182v24.695s7.679,77.91,32.214,86.522,68.133-4.993,68.133-4.993,11.274-29.9,6-31.7-46.616-12.734-46.616-12.734.589-45.709-8.477-59.3c0,0,5.888-42.568-14.5-43.475S984.489,347.867,984.489,347.867Z" transform="translate(-974.408 -155.795)" fill="#3A6A87"/><path d="M977.428,337.55l-14.181,58.27S952.059,395.757,977.428,337.55Z" transform="translate(-850.71 -151.145)" opacity="0.1"/><path d="M989.7,329.61s18.573,30.423,11.323,61.867l-3.459.257S1003.749,377.171,989.7,329.61Z" transform="translate(-911.45 -152.945)" opacity="0.1"/><path d="M917.43,386.85s4.527,31.7-3.68,44.384c0,0,16.586,6.8,39.869,5.435l15.849-49.818Z" transform="translate(-785.044 -139.967)" fill="#3A6A87"/><path d="M535.4,232.073c5.374.7,9.428-4.8,11.307-9.882s3.311-11,7.984-13.746c6.383-3.751,14.55.76,21.849-.477,8.25-1.4,13.6-10.137,14.026-18.483s-2.9-16.382-6.163-24.082l-1.138,9.574a18.975,18.975,0,0,0-8.29-16.586l1.461,14.039a14.9,14.9,0,0,0-17.141-12.337l.231,8.367c-9.522-1.133-19.126-2.266-28.675-1.4s-19.165,3.883-26.4,10.173c-10.826,9.407-14.78,24.9-13.454,39.186s7.218,27.695,13.367,40.659c1.545,3.262,3.683,6.94,7.268,7.356,3.218.372,6.168-2.319,7.17-5.406a19.581,19.581,0,0,0-.087-9.621c-.906-4.814-2.046-9.735-1.2-14.556s4.322-9.59,9.184-10.181,9.838,4.967,7.5,9.27Z" transform="translate(-437.521 -158.391)" fill="#090814"/></g></g><path d="M381.118,412.77H355.531a3.621,3.621,0,0,1-2.844-1.37,3.546,3.546,0,0,1-.694-3.013,69.583,69.583,0,0,0-.447-32.612,3.628,3.628,0,0,1,1.407-3.812c13.157-9.462,23.518-9.188,30.8.818a3.636,3.636,0,0,1,.637,1.536,113.871,113.871,0,0,1,.319,35.339,3.613,3.613,0,0,1-3.589,3.115Z" transform="translate(479.714 -42.702)" fill="#d6d6e3"/><path d="M375.884,391.621h-8.8a1.835,1.835,0,0,1,0-3.67h8.8a1.835,1.835,0,1,1,0,3.67Z" transform="translate(477.014 -47.176)" fill="#fff"/><path d="M375.884,399.621h-8.8a1.835,1.835,0,1,1,0-3.67h8.8a1.835,1.835,0,1,1,0,3.67Z" transform="translate(477.014 -48.74)" fill="#fff"/><path d="M375.884,407.621h-8.8a1.835,1.835,0,1,1,0-3.67h8.8a1.835,1.835,0,1,1,0,3.67Z" transform="translate(477.014 -50.304)" fill="#fff"/><path d="M794.488,445.677H712.7a8.277,8.277,0,0,1-8.268-8.268V387.033a8.277,8.277,0,0,1,8.268-8.268h81.791a8.277,8.277,0,0,1,8.268,8.268v50.376a8.277,8.277,0,0,1-8.268,8.268Z" transform="translate(310.146 -19.685)" fill="#e6e6e6"/><path d="M763.515,440.764H719.97a7.752,7.752,0,0,1-7.744-7.743V394.573a7.752,7.752,0,0,1,7.743-7.743h70.293a7.752,7.752,0,0,1,7.743,7.743v11.7A34.53,34.53,0,0,1,763.515,440.764Z" transform="translate(308.622 -21.261)" fill="#fff"/><path d="M786.39,412.107H730.122a1.835,1.835,0,1,1,0-3.67H786.39a1.835,1.835,0,0,1,0,3.67Z" transform="translate(305.483 -25.485)" fill="#3A6A87"/><path d="M738.924,421.12h-8.8a1.835,1.835,0,1,1,0-3.67h8.8a1.835,1.835,0,1,1,0,3.67Z" transform="translate(305.483 -27.247)" fill="#3A6A87"/><path d="M754.513,430.134H730.122a1.835,1.835,0,0,1,0-3.67h24.391a1.835,1.835,0,0,1,0,3.67Z" transform="translate(305.483 -29.009)" fill="#3A6A87"/><circle cx="11.09" cy="11.09" r="11.09" transform="translate(1003.485 352.66)" fill="#090814"/><g transform="translate(1011.72 181.981)"><path d="M655.724,216.235H582.178a7.443,7.443,0,0,1-7.434-7.434V163.5a7.443,7.443,0,0,1,7.434-7.434h73.545a7.443,7.443,0,0,1,7.434,7.434v45.3A7.443,7.443,0,0,1,655.724,216.235Z" transform="translate(-548.846 -156.069)" fill="#e6e6e6"/><path d="M628.66,212.631H589.505a6.971,6.971,0,0,1-6.963-6.962V171.1a6.97,6.97,0,0,1,6.963-6.962h63.206a6.97,6.97,0,0,1,6.963,6.962v10.521a31.048,31.048,0,0,1-31.013,31.013Z" transform="translate(-551.003 -158.3)" fill="#fff"/><path d="M650.848,189.042h-50.6a1.65,1.65,0,0,1,0-3.3h50.6a1.65,1.65,0,0,1,0,3.3Z" transform="translate(-555.445 -164.276)" fill="#3A6A87"/><path d="M608.167,198.055h-7.914a1.65,1.65,0,0,1,0-3.3h7.914a1.65,1.65,0,0,1,0,3.3Z" transform="translate(-555.445 -166.769)" fill="#3A6A87"/><path d="M622.184,207.068H600.252a1.65,1.65,0,0,1,0-3.3h21.932a1.65,1.65,0,0,1,0,3.3Z" transform="translate(-555.445 -169.262)" fill="#3A6A87"/><circle cx="11.09" cy="11.09" r="11.09" transform="translate(10.625 63.729) rotate(-58.134)" fill="#090814"/></g><path d="M357.128,302.5H331.542a3.621,3.621,0,0,1-2.844-1.37,3.546,3.546,0,0,1-.694-3.013,69.6,69.6,0,0,0-.4-32.429,3.589,3.589,0,0,1,1.655-3.972c9.268-5.4,19.166-5.231,29.417.491a3.63,3.63,0,0,1,1.845,2.6,113.888,113.888,0,0,1,.2,34.577,3.613,3.613,0,0,1-3.589,3.115Z" transform="translate(484.395 -21.731)" fill="#d6d6e3"/><path d="M346.884,281.621h-8.8a1.835,1.835,0,1,1,0-3.67h8.8a1.835,1.835,0,1,1,0,3.67Z" transform="translate(482.684 -25.673)" fill="#fff"/><path d="M357.646,290.634H338.082a1.835,1.835,0,0,1,0-3.67h19.564a1.835,1.835,0,1,1,0,3.67Z" transform="translate(482.684 -27.435)" fill="#fff"/><circle cx="11.09" cy="11.09" r="11.09" transform="translate(762.107 348.009) rotate(-58.134)" fill="#090814"/><path d="M466.132,362.2H440.546a3.621,3.621,0,0,1-2.844-1.37,3.546,3.546,0,0,1-.694-3.013,69.607,69.607,0,0,0-.386-32.374,3.612,3.612,0,0,1,1.709-4c12.43-7.115,22.272-6.919,30.089.6a3.573,3.573,0,0,1,1.029,1.992,113.884,113.884,0,0,1,.272,35.055,3.613,3.613,0,0,1-3.589,3.115Z" transform="translate(451.418 -29.702)" fill="#3A6A87"/><path d="M457.884,342.621h-8.8a1.835,1.835,0,0,1,0-3.67h8.8a1.835,1.835,0,1,1,0,3.67Z" transform="translate(449.32 -34.141)" fill="#fff"/><path d="M468.646,351.634H449.082a1.835,1.835,0,0,1,0-3.67h19.564a1.835,1.835,0,1,1,0,3.67Z" transform="translate(449.32 -35.903)" fill="#fff"/><g transform="translate(844.12 400.656) rotate(-70)"><path d="M71.479,139.877c-21.553,4.228-45.157-4.228-59.25-26.863A83.546,83.546,0,0,1,.252,75.958,81.424,81.424,0,0,1,7.047,36.767C13.323,22.5,22.651,10.927,32.258.491c1.5-1.627,3.667,1.172,2.156,2.813C19.1,19.934,3.209,41.236,3.036,68.981c-.169,27.14,13.634,51.308,32.478,61.638a51.872,51.872,0,0,0,35.154,5.422c1.92-.377,2.748,3.456.811,3.836h0Z" transform="translate(0 0)" fill="#e6e6e6"/><path d="M.687,26.222,21.25,12.237V14.87A31.852,31.852,0,0,1,6.827,2.262C5.8.583,8.437-.95,9.46.723A29.121,29.121,0,0,0,22.789,12.237c1.137.493.839,2.063,0,2.633L2.226,28.856C.6,29.962-.928,27.321.687,26.222h0Z" transform="translate(52.9 124.944)" fill="#e6e6e6"/></g><path d="M526.124,583.477H500.537a3.62,3.62,0,0,1-2.844-1.37,3.546,3.546,0,0,1-.694-3.013,69.6,69.6,0,0,0-.418-32.5,3.6,3.6,0,0,1,1.57-3.921c8.852-5.484,18.49-5.312,29.468.524a3.661,3.661,0,0,1,1.905,2.635,113.891,113.891,0,0,1,.189,34.533,3.613,3.613,0,0,1-3.589,3.115Z" transform="translate(403.3 -122.777)" fill="#3A6A87"/><path d="M515.884,563.621h-8.8a1.835,1.835,0,0,1,0-3.67h8.8a1.835,1.835,0,0,1,0,3.67Z" transform="translate(401.586 -126.935)" fill="#fff"/><path d="M526.646,572.634H507.082a1.835,1.835,0,1,1,0-3.67h19.564a1.835,1.835,0,0,1,0,3.67Z" transform="translate(401.586 -128.696)" fill="#fff"/><g transform="translate(976.548 162.694) rotate(47)"><path d="M71.479.8C49.926-2.436,26.322,4.046,12.229,21.4A54.455,54.455,0,0,0,.252,49.8,49.8,49.8,0,0,0,7.047,79.843c6.276,10.94,15.6,19.808,25.211,27.807,1.5,1.247,3.667-.9,2.156-2.156C19.1,92.747,3.209,76.418,3.036,55.15,2.868,34.346,16.67,15.82,35.514,7.9A65.9,65.9,0,0,1,70.668,3.745c1.92.289,2.748-2.649.811-2.941h0Z" transform="translate(0 13.138)" fill="#e6e6e6"/><path d="M.687,2.9,21.25,16.884V14.251A31.852,31.852,0,0,0,6.827,26.859C5.8,28.538,8.436,30.071,9.46,28.4A29.122,29.122,0,0,1,22.789,16.884c1.137-.493.839-2.063,0-2.633L2.226.265C.6-.841-.928,1.8.687,2.9h0Z" transform="translate(52.9 0)" fill="#e6e6e6"/></g><g transform="translate(923.118 179.929)"><path d="M471.172,238.656l-25.565,1.059a3.621,3.621,0,0,1-2.9-1.251,3.546,3.546,0,0,1-.818-2.982,69.62,69.62,0,0,0-1.669-32.143,3.6,3.6,0,0,1,1.776-4.2c10.471-5.44,20.283-5.716,29.16-.821a3.642,3.642,0,0,1,1.828,2.462,113.883,113.883,0,0,1,1.643,34.62A3.613,3.613,0,0,1,471.172,238.656Z" transform="translate(-440.074 -194.837)" fill="#d6d6e3"/><path d="M472.17,227.614l-19.547.81a1.835,1.835,0,1,1-.152-3.667l19.547-.81a1.835,1.835,0,1,1,.152,3.667Z" transform="translate(-442.153 -200.527)" fill="#fff"/><path d="M471.839,219.621l-19.547.81a1.835,1.835,0,0,1-.152-3.667l19.547-.81a1.835,1.835,0,0,1,.152,3.667Z" transform="translate(-442.088 -198.965)" fill="#fff"/></g></g></svg>