<?xml version="1.0" encoding="UTF-8" standalone="no"?>
<!-- Created with Inkscape (http://www.inkscape.org/) -->

<svg
   width="19.853878mm"
   height="3.1552429mm"
   viewBox="0 0 19.853878 3.1552429"
   version="1.1"
   id="svg1"
   inkscape:version="1.3.2 (091e20ef0f, 2023-11-25)"
   sodipodi:docname="zearow_white.svg"
   xmlns:inkscape="http://www.inkscape.org/namespaces/inkscape"
   xmlns:sodipodi="http://sodipodi.sourceforge.net/DTD/sodipodi-0.dtd"
   xmlns="http://www.w3.org/2000/svg"
   xmlns:svg="http://www.w3.org/2000/svg">
  <sodipodi:namedview
     id="namedview1"
     pagecolor="#ffffff"
     bordercolor="#000000"
     borderopacity="0.25"
     inkscape:showpageshadow="2"
     inkscape:pageopacity="0.0"
     inkscape:pagecheckerboard="0"
     inkscape:deskcolor="#d1d1d1"
     inkscape:document-units="mm"
     inkscape:zoom="14.342964"
     inkscape:cx="37.335379"
     inkscape:cy="10.980994"
     inkscape:window-width="2560"
     inkscape:window-height="1371"
     inkscape:window-x="0"
     inkscape:window-y="32"
     inkscape:window-maximized="1"
     inkscape:current-layer="layer1" />
  <defs
     id="defs1" />
  <g
     inkscape:label="Layer 1"
     inkscape:groupmode="layer"
     id="layer1"
     transform="translate(-1.40015,-1.292587)">
    <path
       style="font-size:5.64444px;font-family:Monospace;-inkscape-font-specification:'Comfortaa Bold';fill:#ffffff;stroke-width:11.3;stroke-linecap:square"
       d="m 9.324946,1.3038773 c -0.886177,0 -1.557866,0.677332 -1.557866,1.569154 0,0.891822 0.620889,1.56351 1.444977,1.56351 0.445911,0 0.829733,-0.197555 1.089377,-0.513644 v 0.208844 c 0,0.163689 0.124177,0.287867 0.287866,0.287867 0.163689,0 0.287867,-0.124178 0.287867,-0.287867 v -1.25871 c -0.0056,-0.891822 -0.671689,-1.569154 -1.552221,-1.569154 z m 0,2.624664 c -0.570089,0 -1.004711,-0.451555 -1.004711,-1.05551 0,-0.603955 0.434622,-1.061155 1.004711,-1.061155 0.570088,0 0.999066,0.4572 0.999066,1.061155 0,0.603955 -0.428978,1.05551 -0.999066,1.05551 z"
       id="path196-5" />
    <path
       style="font-size:5.64444px;font-family:Monospace;-inkscape-font-specification:'Comfortaa Bold';fill:#ffffff;stroke-width:11.3;stroke-linecap:square"
       d="m 7.304237,2.8222313 c 0,-0.891822 -0.524933,-1.518354 -1.405466,-1.518354 -0.891821,0 -1.523999,0.64911 -1.523999,1.569154 0,0.914399 0.666044,1.56351 1.608666,1.56351 0.344311,0 0.767644,-0.141111 1.021644,-0.344311 0.124177,-0.09596 0.118533,-0.248355 -0.01129,-0.361244 -0.09596,-0.07902 -0.242711,-0.07902 -0.3556,0.0056 -0.1524,0.112889 -0.423333,0.214489 -0.654755,0.214489 -0.575733,0 -0.999066,-0.361244 -1.083733,-0.880533 h 2.144888 c 0.1524,0 0.259644,-0.1016 0.259644,-0.248355 z M 5.898771,1.7892983 c 0.508,0 0.818444,0.344311 0.886177,0.829733 H 4.90535 c 0.08467,-0.491066 0.434622,-0.829733 0.993421,-0.829733 z"
       id="path197-6" />
    <path
       style="font-size:5.64444px;font-family:Monospace;-inkscape-font-specification:'Comfortaa Bold';fill:#ffffff;stroke-width:11.3;stroke-linecap:square"
       d="M 3.646637,3.8833863 H 2.212949 l 1.591732,-2.111021 c 0.03387,-0.04516 0.0508,-0.1016 0.0508,-0.180622 0,-0.174978 -0.09031,-0.265289 -0.265289,-0.265289 H 1.665438 c -0.174977,0 -0.265288,0.09031 -0.265288,0.265289 0,0.174978 0.09031,0.265289 0.265288,0.265289 h 1.439333 l -1.597377,2.11102 c -0.03387,0.04516 -0.0508,0.1016 -0.0508,0.180622 0,0.174978 0.09031,0.265289 0.265289,0.265289 h 1.924754 c 0.174978,0 0.265289,-0.09031 0.265289,-0.265289 0,-0.174977 -0.09031,-0.265288 -0.265289,-0.265288 z"
       id="path198-2" />
    <path
       style="font-size:5.64444px;font-family:Monospace;-inkscape-font-specification:'Comfortaa Light';fill:#ffffff;stroke-width:11.3;stroke-linecap:square"
       d="m 21.099238,1.3264543 c -0.06773,0 -0.129822,0.03387 -0.158044,0.1016 l -0.784578,2.359376 -0.739421,-2.325509 c -0.02822,-0.08467 -0.08467,-0.135467 -0.169333,-0.135467 -0.08467,0 -0.146756,0.05644 -0.169334,0.135467 l -0.733777,2.370665 -0.795866,-2.404532 c -0.02822,-0.06773 -0.09596,-0.1016 -0.158044,-0.1016 -0.112889,0 -0.163689,0.07902 -0.129822,0.242711 l 0.914399,2.737554 c 0.02258,0.06773 0.08467,0.107244 0.158044,0.107244 0.06773,0 0.129822,-0.03387 0.158045,-0.107244 l 0.745066,-2.387598 0.767644,2.387598 c 0.01693,0.06773 0.08467,0.107244 0.158044,0.107244 0.07902,0 0.141111,-0.03951 0.163689,-0.107244 l 0.908755,-2.737554 c 0.0508,-0.112888 0,-0.242711 -0.135467,-0.242711 z"
       id="path199-9" />
    <path
       style="font-size:5.64444px;font-family:Monospace;-inkscape-font-specification:'Comfortaa Light';fill:#ffffff;fill-opacity:1;stroke:none;stroke-width:11.3;stroke-linecap:square;stroke-opacity:1"
       d="m 13.044627,1.2925883 c -0.406399,0 -0.756355,0.208844 -0.970843,0.553155 v -0.349955 c 0,-0.1016 -0.06773,-0.169334 -0.169334,-0.169334 -0.101599,0 -0.169333,0.06773 -0.169333,0.169334 v 2.748842 c 0,0.1016 0.06773,0.169333 0.169333,0.169333 0.1016,0 0.169334,-0.06773 0.169334,-0.169333 v -1.71591 c 0,-0.524933 0.400755,-0.914399 0.970843,-0.914399 0.214489,0 0.383822,0.08467 0.423333,-0.09031 0.03951,-0.174978 -0.141111,-0.231422 -0.423333,-0.231423 z"
       id="path200-1" />
    <path
       style="font-size:5.64444px;font-family:Monospace;-inkscape-font-specification:'Comfortaa Light';fill:#ffffff;stroke-width:11.3;stroke-linecap:square"
       d="m 15.392707,4.44783 c 0.897466,0 1.574799,-0.677333 1.574799,-1.574799 0,-0.90311 -0.677333,-1.580443 -1.574799,-1.580443 -0.90311,0 -1.580443,0.677333 -1.580443,1.580443 0,0.897466 0.677333,1.574799 1.580443,1.574799 z m 0,-0.316089 c -0.705555,0 -1.241777,-0.541866 -1.241777,-1.25871 0,-0.722488 0.536222,-1.264355 1.241777,-1.264355 0.705555,0 1.236133,0.541867 1.236133,1.264355 0,0.716844 -0.530578,1.25871 -1.236133,1.25871 z"
       id="path202-0" />
    <path
       style="fill:#ffffff;stroke:#ffffff;stroke-width:0.21;stroke-linecap:round;stroke-dasharray:none;stroke-opacity:1"
       d="M 16.862507,1.397587 13.917264,4.34283"
       id="path203-9" />
  </g>
</svg>
