<?xml version="1.0" encoding="UTF-8" standalone="no"?>
<!-- Created with Inkscape (http://www.inkscape.org/) -->

<svg
   width="22.702278mm"
   height="8.1725388mm"
   viewBox="0 0 22.702278 8.1725388"
   version="1.1"
   id="svg1"
   inkscape:version="1.3.2 (091e20ef0f, 2023-11-25)"
   sodipodi:docname="zearow_logo_full_white.svg"
   xmlns:inkscape="http://www.inkscape.org/namespaces/inkscape"
   xmlns:sodipodi="http://sodipodi.sourceforge.net/DTD/sodipodi-0.dtd"
   xmlns="http://www.w3.org/2000/svg"
   xmlns:svg="http://www.w3.org/2000/svg">
  <sodipodi:namedview
     id="namedview1"
     pagecolor="#ffffff"
     bordercolor="#000000"
     borderopacity="0.25"
     inkscape:showpageshadow="2"
     inkscape:pageopacity="0.0"
     inkscape:pagecheckerboard="0"
     inkscape:deskcolor="#d1d1d1"
     inkscape:document-units="mm"
     inkscape:zoom="9.0300794"
     inkscape:cx="37.153605"
     inkscape:cy="14.562441"
     inkscape:window-width="2560"
     inkscape:window-height="1403"
     inkscape:window-x="2560"
     inkscape:window-y="0"
     inkscape:window-maximized="1"
     inkscape:current-layer="layer1" />
  <defs
     id="defs1" />
  <g
     inkscape:label="Layer 1"
     inkscape:groupmode="layer"
     id="layer1">
    <path
       style="font-weight:300;font-size:1.49254px;font-family:Comfortaa;-inkscape-font-specification:'Comfortaa Light';text-align:center;text-anchor:middle;fill:#ffffff;stroke-width:0.10388;stroke-linecap:round"
       d="m 4.7283583,7.8262671 c 0.09403,0 0.207463,-0.041791 0.2716422,-0.1000002 0.019403,-0.01791 0.017911,-0.041791 -0.00298,-0.059702 -0.016418,-0.013433 -0.041791,-0.01194 -0.058209,0.00299 -0.046269,0.043284 -0.1328361,0.073135 -0.2104481,0.073135 -0.1761198,0 -0.3044782,-0.1253734 -0.314926,-0.3044782 h 0.6253743 c 0.025373,0 0.043284,-0.016418 0.043284,-0.041791 0,-0.2343288 -0.1552241,-0.4014933 -0.37612,-0.4014933 -0.2253736,0 -0.3835828,0.1731347 -0.3835828,0.4164187 0,0.243284 0.168657,0.4149261 0.4059709,0.4149261 z M 4.7059702,7.0785073 c 0.1626868,0 0.2761199,0.1149256 0.2895527,0.28209 h -0.580598 c 0.019403,-0.168657 0.1343286,-0.28209 0.2910453,-0.28209 z"
       id="path20" />
    <path
       style="font-weight:300;font-size:1.49254px;font-family:Comfortaa;-inkscape-font-specification:'Comfortaa Light';text-align:center;text-anchor:middle;fill:#ffffff;stroke-width:0.10388;stroke-linecap:round"
       d="m 4.1731334,7.8188071 h 0.029851 c 0.026866,0 0.044776,-0.017911 0.044776,-0.044776 0,-0.026866 -0.014925,-0.044776 -0.037313,-0.044776 h -0.037313 c -0.061194,0 -0.1044778,-0.064179 -0.1044778,-0.1567167 V 6.6979096 c 0,-0.026866 -0.01791,-0.044776 -0.044776,-0.044776 -0.026866,0 -0.044776,0.017911 -0.044776,0.044776 V 7.572538 c 0,0.1447764 0.080597,0.2462691 0.1940302,0.2462691 z"
       id="path19" />
    <path
       style="font-weight:300;font-size:1.49254px;font-family:Comfortaa;-inkscape-font-specification:'Comfortaa Light';text-align:center;text-anchor:middle;fill:#ffffff;stroke-width:0.10388;stroke-linecap:round"
       d="m 2.99552,8.1680615 c 0.026866,0 0.044776,-0.017911 0.044776,-0.044776 V 7.6576128 c 0.064179,0.1029853 0.1835825,0.1701496 0.3268663,0.1701496 0.2388064,0 0.4179112,-0.1791048 0.4179112,-0.4164187 0,-0.2388064 -0.1791048,-0.4179112 -0.4179112,-0.4179112 -0.2343288,0 -0.411941,0.1746272 -0.4164187,0.408956 v 0.7208968 c 0,0.026866 0.01791,0.044776 0.044776,0.044776 z M 3.3671625,7.7441801 c -0.1865675,0 -0.3268663,-0.1432838 -0.3268663,-0.3328364 0,-0.1910451 0.1402988,-0.334329 0.3268663,-0.334329 0.1865675,0 0.3283588,0.1432839 0.3283588,0.334329 0,0.1895526 -0.1417913,0.3328364 -0.3283588,0.3328364 z"
       id="path18" />
    <path
       style="font-weight:300;font-size:1.49254px;font-family:Comfortaa;-inkscape-font-specification:'Comfortaa Light';text-align:center;text-anchor:middle;fill:#ffffff;stroke-width:0.10388;stroke-linecap:round"
       d="m 2.3104429,7.8277624 c 0.2373138,0 0.4164186,-0.1791048 0.4164186,-0.4164187 0,-0.2388064 -0.1791048,-0.4179112 -0.4164186,-0.4179112 -0.2388064,0 -0.4179112,0.1791048 -0.4179112,0.4179112 0,0.2373139 0.1791048,0.4164187 0.4179112,0.4164187 z m 0,-0.083582 c -0.1865675,0 -0.3283588,-0.1432838 -0.3283588,-0.3328364 0,-0.1910451 0.1417913,-0.334329 0.3283588,-0.334329 0.1865675,0 0.3268662,0.1432839 0.3268662,0.334329 0,0.1895526 -0.1402987,0.3328364 -0.3268662,0.3328364 z"
       id="path17" />
    <path
       style="font-weight:300;font-size:1.49254px;font-family:Comfortaa;-inkscape-font-specification:'Comfortaa Light';text-align:center;text-anchor:middle;fill:#ffffff;stroke-width:0.10388;stroke-linecap:round"
       d="m 1.4193983,7.8262701 c 0.09403,0 0.2074631,-0.041791 0.2716423,-0.1000002 0.019403,-0.01791 0.01791,-0.041791 -0.00299,-0.059702 -0.016418,-0.013433 -0.041791,-0.01194 -0.058209,0.00299 -0.046269,0.043284 -0.132836,0.073135 -0.2104481,0.073135 -0.1761197,0 -0.3044782,-0.1253734 -0.3149259,-0.3044782 h 0.6253742 c 0.025373,0 0.043284,-0.016418 0.043284,-0.041791 0,-0.2343288 -0.1552242,-0.4014933 -0.3761201,-0.4014933 -0.2253735,0 -0.3835828,0.1731347 -0.3835828,0.4164187 0,0.243284 0.168657,0.4149261 0.4059709,0.4149261 z M 1.3970102,7.0785073 c 0.1626869,0 0.2761199,0.1149256 0.2895528,0.28209 H 1.1059649 c 0.019403,-0.168657 0.1343286,-0.28209 0.2910453,-0.28209 z"
       id="path16" />
    <path
       style="font-weight:300;font-size:1.49254px;font-family:Comfortaa;-inkscape-font-specification:'Comfortaa Light';text-align:center;text-anchor:middle;fill:#ffffff;stroke-width:0.10388;stroke-linecap:round"
       d="m 0.04476945,8.1680615 c 0.02686572,0 0.0447762,-0.017911 0.0447762,-0.044776 V 7.6576128 c 0.06417922,0.1029853 0.18358242,0.1701496 0.32686626,0.1701496 0.2388064,0 0.41791121,-0.1791048 0.41791121,-0.4164187 0,-0.2388064 -0.17910481,-0.4179112 -0.41791121,-0.4179112 -0.23432878,0 -0.41194104,0.1746272 -0.4164186559438,0.408956 v 0.7208968 c 0,0.026866 0.017910475944,0.044776 0.044776195944,0.044776 z M 0.41641191,7.7441801 c -0.1865675,0 -0.32686626,-0.1432838 -0.32686626,-0.3328364 0,-0.1910451 0.14029876,-0.334329 0.32686626,-0.334329 0.1865675,0 0.3283588,0.1432839 0.3283588,0.334329 0,0.1895526 -0.1417913,0.3328364 -0.3283588,0.3328364 z"
       id="path13" />
    <path
       style="font-weight:300;font-size:1.49254px;font-family:Comfortaa;-inkscape-font-specification:'Comfortaa Light';text-align:center;text-anchor:middle;fill:#ffffff;stroke-width:0.10388;stroke-linecap:round"
       d="m 5.8671639,8.1680615 c 0.025373,0 0.046269,-0.019403 0.046269,-0.044776 V 6.696417 c 0,-0.025373 -0.020896,-0.044776 -0.046269,-0.044776 -0.025373,0 -0.044776,0.019403 -0.044776,0.044776 v 1.4268683 c 0,0.025373 0.019403,0.044776 0.044776,0.044776 z"
       id="path14" />
    <path
       style="font-weight:300;font-size:1.49254px;font-family:Comfortaa;-inkscape-font-specification:'Comfortaa Light';text-align:center;text-anchor:middle;fill:#ffffff;stroke-width:0.10388;stroke-linecap:round"
       d="m 22.161218,8.1725443 c 0.01493,0 0.02537,-0.00896 0.03433,-0.026866 l 0.501493,-1.0865691 c 0.01194,-0.025373 0.003,-0.044776 -0.02239,-0.055224 -0.02537,-0.010448 -0.04328,-0.00299 -0.05522,0.022388 L 22.314954,7.6874636 22.011968,7.0247758 c -0.01194,-0.025373 -0.03284,-0.031343 -0.05821,-0.019403 -0.02537,0.01194 -0.03134,0.032836 -0.0194,0.058209 l 0.326866,0.7164192 c 0.0015,0.00448 0.003,0.00746 0.006,0.010448 L 22.11797,8.1128376 c -0.01194,0.025373 -0.003,0.044776 0.02239,0.055224 0.0075,0.00299 0.01343,0.00448 0.02089,0.00448 z"
       id="path37" />
    <path
       style="font-weight:300;font-size:1.49254px;font-family:Comfortaa;-inkscape-font-specification:'Comfortaa Light';text-align:center;text-anchor:middle;fill:#ffffff;stroke-width:0.10388;stroke-linecap:round"
       d="m 21.385095,7.8277673 c 0.150746,0 0.27015,-0.073135 0.326866,-0.1895526 v 0.065672 c 0,0.1955228 -0.137314,0.3432842 -0.320896,0.3432842 -0.129851,0 -0.225374,-0.053731 -0.286568,-0.1283584 -0.01492,-0.020896 -0.04627,-0.025373 -0.06567,-0.010448 -0.0194,0.013433 -0.0194,0.038806 -0.003,0.058209 0.07463,0.095522 0.189553,0.1641794 0.355225,0.1641794 0.234329,0 0.410448,-0.1835824 0.410448,-0.4268665 V 7.4113437 c 0,-0.2447766 -0.173134,-0.4179112 -0.416418,-0.4179112 -0.235822,0 -0.417911,0.1731346 -0.417911,0.4179112 0,0.243284 0.173134,0.4164187 0.417911,0.4164187 z m 0,-0.083582 c -0.192538,0 -0.328359,-0.1373137 -0.328359,-0.3328364 0,-0.1955227 0.135821,-0.334329 0.328359,-0.334329 0.191045,0 0.326866,0.1388063 0.326866,0.334329 0,0.1955227 -0.135821,0.3328364 -0.326866,0.3328364 z"
       id="path36" />
    <path
       style="font-weight:300;font-size:1.49254px;font-family:Comfortaa;-inkscape-font-specification:'Comfortaa Light';text-align:center;text-anchor:middle;fill:#ffffff;stroke-width:0.10388;stroke-linecap:round"
       d="m 20.371659,7.8277673 c 0.237314,0 0.416419,-0.1791048 0.416419,-0.4164187 0,-0.2388064 -0.179105,-0.4179112 -0.416419,-0.4179112 -0.238806,0 -0.417911,0.1791048 -0.417911,0.4179112 0,0.2373139 0.179105,0.4164187 0.417911,0.4164187 z m 0,-0.083582 c -0.186567,0 -0.328358,-0.1432838 -0.328358,-0.3328364 0,-0.1910451 0.141791,-0.334329 0.328358,-0.334329 0.186568,0 0.326867,0.1432839 0.326867,0.334329 0,0.1895526 -0.140299,0.3328364 -0.326867,0.3328364 z"
       id="path35" />
    <path
       style="font-weight:300;font-size:1.49254px;font-family:Comfortaa;-inkscape-font-specification:'Comfortaa Light';text-align:center;text-anchor:middle;fill:#ffffff;stroke-width:0.10388;stroke-linecap:round"
       d="m 19.804494,7.8188073 h 0.02985 c 0.02687,0 0.04478,-0.017911 0.04478,-0.044776 0,-0.026866 -0.01492,-0.044776 -0.03731,-0.044776 h -0.03731 c -0.06119,0 -0.104478,-0.064179 -0.104478,-0.1567167 v -0.874629 c 0,-0.026866 -0.01791,-0.044776 -0.04478,-0.044776 -0.02687,0 -0.04478,0.017911 -0.04478,0.044776 V 7.572538 c 0,0.1447764 0.0806,0.2462691 0.19403,0.2462691 z"
       id="path34" />
    <path
       style="font-weight:300;font-size:1.49254px;font-family:Comfortaa;-inkscape-font-specification:'Comfortaa Light';text-align:center;text-anchor:middle;fill:#ffffff;stroke-width:0.10388;stroke-linecap:round"
       d="m 19.000014,7.8277623 c 0.237314,0 0.416419,-0.1791048 0.416419,-0.4164187 0,-0.2388064 -0.179105,-0.4179112 -0.416419,-0.4179112 -0.238806,0 -0.417911,0.1791048 -0.417911,0.4179112 0,0.2373139 0.179105,0.4164187 0.417911,0.4164187 z m 0,-0.083582 c -0.186567,0 -0.328358,-0.1432838 -0.328358,-0.3328364 0,-0.1910451 0.141791,-0.334329 0.328358,-0.334329 0.186568,0 0.326867,0.1432839 0.326867,0.334329 0,0.1895526 -0.140299,0.3328364 -0.326867,0.3328364 z"
       id="path33" />
    <path
       style="font-weight:300;font-size:1.49254px;font-family:Comfortaa;-inkscape-font-specification:'Comfortaa Light';text-align:center;text-anchor:middle;fill:#ffffff;stroke-width:0.10388;stroke-linecap:round"
       d="m 17.667175,7.8188023 c 0.02687,0 0.04478,-0.017911 0.04478,-0.044776 V 7.3173137 c 0,-0.1343286 0.122389,-0.2358213 0.283583,-0.2358213 0.164179,0 0.28806,0.095522 0.28806,0.2910453 v 0.4014932 c 0,0.025373 0.0194,0.044776 0.04478,0.044776 0.02537,0 0.04478,-0.019403 0.04478,-0.044776 V 7.3725377 c 0,-0.2462691 -0.162687,-0.3805977 -0.377613,-0.3805977 -0.116418,0 -0.217911,0.050746 -0.283583,0.132836 V 7.047164 c 0,-0.026866 -0.01791,-0.044776 -0.04478,-0.044776 -0.02687,0 -0.04478,0.017911 -0.04478,0.044776 v 0.726867 c 0,0.026866 0.01791,0.044776 0.04478,0.044776 z"
       id="path32" />
    <path
       style="font-weight:300;font-size:1.49254px;font-family:Comfortaa;-inkscape-font-specification:'Comfortaa Light';text-align:center;text-anchor:middle;fill:#ffffff;stroke-width:0.10388;stroke-linecap:round"
       d="m 16.662695,7.8188023 c 0.02687,0 0.04478,-0.017911 0.04478,-0.044776 V 7.3173137 c 0,-0.1343286 0.122388,-0.2358213 0.283583,-0.2358213 0.164179,0 0.28806,0.095522 0.28806,0.2910453 v 0.4014932 c 0,0.025373 0.0194,0.044776 0.04478,0.044776 0.02537,0 0.04478,-0.019403 0.04478,-0.044776 V 7.3725377 c 0,-0.2462691 -0.162687,-0.3805977 -0.377612,-0.3805977 -0.116418,0 -0.217911,0.050746 -0.283583,0.132836 V 6.6979096 c 0,-0.026866 -0.01791,-0.044776 -0.04478,-0.044776 -0.02687,0 -0.04478,0.017911 -0.04478,0.044776 v 1.0761213 c 0,0.026866 0.01791,0.044776 0.04478,0.044776 z"
       id="path31" />
    <path
       style="font-weight:300;font-size:1.49254px;font-family:Comfortaa;-inkscape-font-specification:'Comfortaa Light';text-align:center;text-anchor:middle;fill:#ffffff;stroke-width:0.10388;stroke-linecap:round"
       d="m 16.094038,7.8277623 c 0.10597,0 0.201493,-0.035821 0.271642,-0.1000002 0.01791,-0.016418 0.01642,-0.041791 -0.003,-0.059702 -0.01642,-0.014925 -0.0403,-0.013433 -0.05821,0.00299 -0.05373,0.049254 -0.128358,0.073134 -0.210448,0.073134 -0.18806,0 -0.316419,-0.1432838 -0.316419,-0.3328364 0,-0.1925377 0.117911,-0.3328364 0.294031,-0.3328364 0.1,0 0.179105,0.037313 0.243284,0.113433 0.01642,0.019403 0.0403,0.022388 0.05821,0.00896 0.02239,-0.013433 0.02687,-0.037313 0.01045,-0.058209 -0.07761,-0.098508 -0.185075,-0.1477615 -0.311941,-0.1477615 -0.222389,0 -0.383583,0.1776123 -0.383583,0.4164187 0,0.2358213 0.171642,0.4164187 0.405971,0.4164187 z"
       id="path30" />
    <path
       style="font-weight:300;font-size:1.49254px;font-family:Comfortaa;-inkscape-font-specification:'Comfortaa Light';text-align:center;text-anchor:middle;fill:#ffffff;stroke-width:0.10388;stroke-linecap:round"
       d="m 15.214935,7.8262697 c 0.09403,0 0.207463,-0.041791 0.271642,-0.1000002 0.0194,-0.01791 0.01791,-0.041791 -0.003,-0.059702 -0.01642,-0.013433 -0.04179,-0.01194 -0.05821,0.00299 -0.04627,0.043284 -0.132836,0.073135 -0.210448,0.073135 -0.17612,0 -0.304478,-0.1253734 -0.314926,-0.3044782 h 0.625375 c 0.02537,0 0.04328,-0.016418 0.04328,-0.041791 0,-0.2343288 -0.155224,-0.4014933 -0.37612,-0.4014933 -0.225373,0 -0.383583,0.1731347 -0.383583,0.4164187 0,0.243284 0.168657,0.4149261 0.405971,0.4149261 z m -0.02239,-0.7477625 c 0.162687,0 0.27612,0.1149256 0.289553,0.28209 H 14.9015 c 0.0194,-0.168657 0.134328,-0.28209 0.291045,-0.28209 z"
       id="path29" />
    <path
       style="font-weight:300;font-size:1.49254px;font-family:Comfortaa;-inkscape-font-specification:'Comfortaa Light';text-align:center;text-anchor:middle;fill:#ffffff;stroke-width:0.10388;stroke-linecap:round"
       d="m 14.586576,7.8188097 h 0.03433 c 0.02687,0 0.04627,-0.017911 0.04627,-0.044776 0,-0.026866 -0.0194,-0.046269 -0.04627,-0.046269 h -0.03284 c -0.113433,0 -0.192537,-0.080597 -0.192537,-0.1955228 V 7.1128357 h 0.197015 c 0.02388,0 0.0403,-0.016418 0.0403,-0.040299 0,-0.023881 -0.01642,-0.040299 -0.0403,-0.040299 h -0.197015 v -0.243284 c 0,-0.026866 -0.0194,-0.046269 -0.04627,-0.046269 -0.02687,0 -0.04478,0.019403 -0.04478,0.046269 v 0.243284 H 14.18806 c -0.02388,0 -0.0403,0.016418 -0.0403,0.040299 0,0.023881 0.01642,0.040299 0.0403,0.040299 h 0.116419 v 0.4194037 c 0,0.165672 0.116418,0.2850752 0.28209,0.2865677 z"
       id="path28" />
    <path
       style="font-weight:300;font-size:1.49254px;font-family:Comfortaa;-inkscape-font-specification:'Comfortaa Light';text-align:center;text-anchor:middle;fill:#ffffff;stroke-width:0.10388;stroke-linecap:round"
       d="m 13.385081,8.1680641 c 0.02537,0 0.04627,-0.019403 0.04627,-0.044776 V 6.696417 c 0,-0.025373 -0.0209,-0.044776 -0.04627,-0.044776 -0.02537,0 -0.04478,0.019403 -0.04478,0.044776 v 1.4268683 c 0,0.025373 0.0194,0.044776 0.04478,0.044776 z"
       id="path27" />
    <path
       style="font-weight:300;font-size:1.49254px;font-family:Comfortaa;-inkscape-font-specification:'Comfortaa Light';text-align:center;text-anchor:middle;fill:#ffffff;stroke-width:0.10388;stroke-linecap:round"
       d="m 12.271649,7.827765 c 0.17015,0 0.320896,-0.08806 0.320896,-0.2298512 0,-0.1059703 -0.07313,-0.2029854 -0.297015,-0.2343288 -0.16418,-0.023881 -0.223881,-0.071642 -0.223881,-0.149254 0,-0.074627 0.07313,-0.1373137 0.198507,-0.1373137 0.09254,0 0.16418,0.034328 0.213434,0.097015 0.01492,0.019403 0.0403,0.023881 0.0597,0.013433 0.02537,-0.013433 0.02985,-0.038806 0.01493,-0.059702 -0.05821,-0.080597 -0.149254,-0.1343286 -0.285076,-0.1343286 -0.167164,0 -0.28806,0.080597 -0.28806,0.2298512 0,0.1059703 0.09403,0.1910451 0.292538,0.2194033 0.155224,0.022388 0.228359,0.073135 0.228359,0.1507466 0,0.080597 -0.06269,0.149254 -0.229851,0.149254 -0.09851,0 -0.183583,-0.022388 -0.240299,-0.091045 -0.01493,-0.01791 -0.0403,-0.022388 -0.0597,-0.00896 -0.02239,0.016418 -0.02537,0.041791 -0.009,0.061194 0.07612,0.089552 0.2,0.1238809 0.304478,0.1238809 z"
       id="path26" />
    <path
       style="font-weight:300;font-size:1.49254px;font-family:Comfortaa;-inkscape-font-specification:'Comfortaa Light';text-align:center;text-anchor:middle;fill:#ffffff;stroke-width:0.10388;stroke-linecap:round"
       d="m 11.471648,7.827765 c 0.170149,0 0.320896,-0.08806 0.320896,-0.2298512 0,-0.1059703 -0.07314,-0.2029854 -0.297016,-0.2343288 -0.164179,-0.023881 -0.223881,-0.071642 -0.223881,-0.149254 0,-0.074627 0.07314,-0.1373137 0.198508,-0.1373137 0.09254,0 0.16418,0.034328 0.213433,0.097015 0.01493,0.019403 0.0403,0.023881 0.0597,0.013433 0.02537,-0.013433 0.02985,-0.038806 0.01492,-0.059702 -0.05821,-0.080597 -0.149254,-0.1343286 -0.285075,-0.1343286 -0.167164,0 -0.28806,0.080597 -0.28806,0.2298512 0,0.1059703 0.09403,0.1910451 0.292538,0.2194033 0.155224,0.022388 0.228359,0.073135 0.228359,0.1507466 0,0.080597 -0.06269,0.149254 -0.229852,0.149254 -0.09851,0 -0.183582,-0.022388 -0.240299,-0.091045 -0.01492,-0.01791 -0.0403,-0.022388 -0.0597,-0.00896 -0.02239,0.016418 -0.02537,0.041791 -0.009,0.061194 0.07612,0.089552 0.2,0.1238809 0.304478,0.1238809 z"
       id="path25" />
    <path
       style="font-weight:300;font-size:1.49254px;font-family:Comfortaa;-inkscape-font-specification:'Comfortaa Light';text-align:center;text-anchor:middle;fill:#ffffff;stroke-width:0.10388;stroke-linecap:round"
       d="m 10.646276,7.8262724 c 0.09403,0 0.207464,-0.041791 0.271643,-0.1000002 0.0194,-0.01791 0.01791,-0.041791 -0.003,-0.059702 -0.01642,-0.013433 -0.04179,-0.01194 -0.05821,0.00299 -0.04627,0.043284 -0.132836,0.073135 -0.210449,0.073135 -0.176119,0 -0.304478,-0.1253734 -0.314925,-0.3044782 h 0.625374 c 0.02537,0 0.04328,-0.016418 0.04328,-0.041791 0,-0.2343288 -0.155224,-0.4014933 -0.37612,-0.4014933 -0.225373,0 -0.383582,0.1731347 -0.383582,0.4164187 0,0.243284 0.168657,0.4149261 0.40597,0.4149261 z m -0.02239,-0.7477625 c 0.162687,0 0.27612,0.1149256 0.289553,0.28209 h -0.580598 c 0.0194,-0.168657 0.134329,-0.28209 0.291045,-0.28209 z"
       id="path24" />
    <path
       style="font-weight:300;font-size:1.49254px;font-family:Comfortaa;-inkscape-font-specification:'Comfortaa Light';text-align:center;text-anchor:middle;fill:#ffffff;stroke-width:0.10388;stroke-linecap:round"
       d="m 9.7612,7.8277624 c 0.1059703,0 0.2014929,-0.035821 0.271642,-0.1000002 0.01791,-0.016418 0.01642,-0.041791 -0.003,-0.059702 -0.01642,-0.014925 -0.040298,-0.013433 -0.058209,0.00299 -0.053731,0.049254 -0.1283584,0.073134 -0.2104481,0.073134 -0.1880601,0 -0.3164185,-0.1432838 -0.3164185,-0.3328364 0,-0.1925377 0.1179106,-0.3328364 0.2940304,-0.3328364 0.1000001,0 0.1791048,0.037313 0.243284,0.113433 0.016418,0.019403 0.040298,0.022388 0.058209,0.00896 0.02239,-0.013433 0.02687,-0.037313 0.01045,-0.058209 C 9.9731406,7.0441789 9.8656778,6.994925 9.7388119,6.994925 c -0.2223885,0 -0.3835828,0.1776123 -0.3835828,0.4164187 0,0.2358213 0.1716421,0.4164187 0.4059709,0.4164187 z"
       id="path23" />
    <path
       style="font-weight:300;font-size:1.49254px;font-family:Comfortaa;-inkscape-font-specification:'Comfortaa Light';text-align:center;text-anchor:middle;fill:#ffffff;stroke-width:0.10388;stroke-linecap:round"
       d="m 8.759704,7.8277671 c 0.079211,0 0.1519368,-0.019954 0.213682,-0.055366 0.1232415,-0.070682 0.2027366,-0.2029493 0.2027366,-0.3610522 0,-0.2388064 -0.1791048,-0.4179112 -0.4164186,-0.4179112 -0.2388064,0 -0.4179112,0.1791048 -0.4179112,0.4179112 0,0.2373139 0.1791048,0.4164187 0.4179112,0.4164187 z m 0,-0.083582 c -0.1865675,0 -0.3283588,-0.1432838 -0.3283588,-0.3328364 0,-0.1910451 0.1417913,-0.334329 0.3283588,-0.334329 0.1865675,0 0.3268662,0.1432839 0.3268662,0.334329 0,0.1895526 -0.1402987,0.3328364 -0.3268662,0.3328364 z"
       id="path22" />
    <path
       style="font-weight:300;font-size:1.49254px;font-family:Comfortaa;-inkscape-font-specification:'Comfortaa Light';text-align:center;text-anchor:middle;fill:#ffffff;stroke-width:0.10388;stroke-linecap:round"
       d="m 7.8373162,7.8188071 c 0.026866,0 0.044776,-0.017911 0.044776,-0.044776 V 7.3202988 c 0,-0.1388063 0.1059703,-0.2417915 0.2567169,-0.2417915 0.056717,0 0.1014927,0.022388 0.1119405,-0.023881 0.010448,-0.046269 -0.037313,-0.061194 -0.1119405,-0.061194 -0.1074629,0 -0.2000004,0.055224 -0.2567169,0.1462689 v -0.092537 c 0,-0.026866 -0.017911,-0.044776 -0.044776,-0.044776 -0.026866,0 -0.044776,0.017911 -0.044776,0.044776 v 0.726867 c 0,0.026866 0.017911,0.044776 0.044776,0.044776 z"
       id="path21" />
    <path
       style="font-weight:300;font-size:1.49254px;font-family:Comfortaa;-inkscape-font-specification:'Comfortaa Light';text-align:center;text-anchor:middle;fill:#ffffff;stroke-width:0.10388;stroke-linecap:round"
       d="m 6.7791058,8.1680615 c 0.026866,0 0.044776,-0.017911 0.044776,-0.044776 V 7.6576128 c 0.064179,0.1029853 0.1835825,0.1701496 0.3268663,0.1701496 0.2388064,0 0.4179112,-0.1791048 0.4179112,-0.4164187 0,-0.2388064 -0.1791048,-0.4179112 -0.4179112,-0.4179112 -0.2343288,0 -0.411941,0.1746272 -0.4164187,0.408956 v 0.7208968 c 0,0.026866 0.017911,0.044776 0.044776,0.044776 z M 7.1507483,7.7441801 c -0.1865675,0 -0.3268663,-0.1432838 -0.3268663,-0.3328364 0,-0.1910451 0.1402988,-0.334329 0.3268663,-0.334329 0.1865675,0 0.3283588,0.1432839 0.3283588,0.334329 0,0.1895526 -0.1417913,0.3328364 -0.3283588,0.3328364 z"
       id="path15" />
    <path
       style="font-size:5.64444px;font-family:Monospace;-inkscape-font-specification:Comfortaa;fill:#ffffff;stroke-width:11.3;stroke-linecap:square"
       d="m 0.220133,5.7347513 h 0.891822 c 0.124177,0 0.225777,-0.09595 0.225777,-0.220133 0,-0.124178 -0.1016,-0.225778 -0.225777,-0.225778 H 0.440266 v -4.842929 h 0.671689 c 0.124177,0 0.225777,-0.1016 0.225777,-0.225778 C 1.337732,0.0959553 1.236132,0 1.111955,0 H 0.220133 C 0.095955,0 0,0.09595 0,0.2201333 v 5.294485 c 0,0.124178 0.09596,0.220133 0.220133,0.220133 z"
       id="path195-3" />
    <path
       style="font-size:5.64444px;font-family:Monospace;-inkscape-font-specification:'Comfortaa Bold';fill:#ffffff;stroke-width:11.3;stroke-linecap:square"
       d="m 9.324946,1.3038773 c -0.886177,0 -1.557866,0.677332 -1.557866,1.569154 0,0.891822 0.620889,1.56351 1.444977,1.56351 0.445911,0 0.829733,-0.197555 1.089377,-0.513644 v 0.208844 c 0,0.163689 0.124177,0.287867 0.287866,0.287867 0.163689,0 0.287867,-0.124178 0.287867,-0.287867 v -1.25871 c -0.0056,-0.891822 -0.671689,-1.569154 -1.552221,-1.569154 z m 0,2.624664 c -0.570089,0 -1.004711,-0.451555 -1.004711,-1.05551 0,-0.603955 0.434622,-1.061155 1.004711,-1.061155 0.570088,0 0.999066,0.4572 0.999066,1.061155 0,0.603955 -0.428978,1.05551 -0.999066,1.05551 z"
       id="path196-5" />
    <path
       style="font-size:5.64444px;font-family:Monospace;-inkscape-font-specification:'Comfortaa Bold';fill:#ffffff;stroke-width:11.3;stroke-linecap:square"
       d="m 7.304237,2.8222313 c 0,-0.891822 -0.524933,-1.518354 -1.405466,-1.518354 -0.891821,0 -1.523999,0.64911 -1.523999,1.569154 0,0.914399 0.666044,1.56351 1.608666,1.56351 0.344311,0 0.767644,-0.141111 1.021644,-0.344311 0.124177,-0.09596 0.118533,-0.248355 -0.01129,-0.361244 -0.09596,-0.07902 -0.242711,-0.07902 -0.3556,0.0056 -0.1524,0.112889 -0.423333,0.214489 -0.654755,0.214489 -0.575733,0 -0.999066,-0.361244 -1.083733,-0.880533 h 2.144888 c 0.1524,0 0.259644,-0.1016 0.259644,-0.248355 z M 5.898771,1.7892983 c 0.508,0 0.818444,0.344311 0.886177,0.829733 H 4.90535 c 0.08467,-0.491066 0.434622,-0.829733 0.993421,-0.829733 z"
       id="path197-6" />
    <path
       style="font-size:5.64444px;font-family:Monospace;-inkscape-font-specification:'Comfortaa Bold';fill:#ffffff;stroke-width:11.3;stroke-linecap:square"
       d="M 3.646637,3.8833863 H 2.212949 l 1.591732,-2.111021 c 0.03387,-0.04516 0.0508,-0.1016 0.0508,-0.180622 0,-0.174978 -0.09031,-0.265289 -0.265289,-0.265289 H 1.665438 c -0.174977,0 -0.265288,0.09031 -0.265288,0.265289 0,0.174978 0.09031,0.265289 0.265288,0.265289 h 1.439333 l -1.597377,2.11102 c -0.03387,0.04516 -0.0508,0.1016 -0.0508,0.180622 0,0.174978 0.09031,0.265289 0.265289,0.265289 h 1.924754 c 0.174978,0 0.265289,-0.09031 0.265289,-0.265289 0,-0.174977 -0.09031,-0.265288 -0.265289,-0.265288 z"
       id="path198-2" />
    <path
       style="font-size:5.64444px;font-family:Monospace;-inkscape-font-specification:'Comfortaa Light';fill:#ffffff;stroke-width:11.3;stroke-linecap:square"
       d="m 21.099238,1.3264543 c -0.06773,0 -0.129822,0.03387 -0.158044,0.1016 l -0.784578,2.359376 -0.739421,-2.325509 c -0.02822,-0.08467 -0.08467,-0.135467 -0.169333,-0.135467 -0.08467,0 -0.146756,0.05644 -0.169334,0.135467 l -0.733777,2.370665 -0.795866,-2.404532 c -0.02822,-0.06773 -0.09596,-0.1016 -0.158044,-0.1016 -0.112889,0 -0.163689,0.07902 -0.129822,0.242711 l 0.914399,2.737554 c 0.02258,0.06773 0.08467,0.107244 0.158044,0.107244 0.06773,0 0.129822,-0.03387 0.158045,-0.107244 l 0.745066,-2.387598 0.767644,2.387598 c 0.01693,0.06773 0.08467,0.107244 0.158044,0.107244 0.07902,0 0.141111,-0.03951 0.163689,-0.107244 l 0.908755,-2.737554 c 0.0508,-0.112888 0,-0.242711 -0.135467,-0.242711 z"
       id="path199-9" />
    <path
       style="font-size:5.64444px;font-family:Monospace;-inkscape-font-specification:'Comfortaa Light';fill:#ffffff;fill-opacity:1;stroke:none;stroke-width:11.3;stroke-linecap:square;stroke-opacity:1"
       d="m 13.044627,1.2925883 c -0.406399,0 -0.756355,0.208844 -0.970843,0.553155 v -0.349955 c 0,-0.1016 -0.06773,-0.169334 -0.169334,-0.169334 -0.101599,0 -0.169333,0.06773 -0.169333,0.169334 v 2.748842 c 0,0.1016 0.06773,0.169333 0.169333,0.169333 0.1016,0 0.169334,-0.06773 0.169334,-0.169333 v -1.71591 c 0,-0.524933 0.400755,-0.914399 0.970843,-0.914399 0.214489,0 0.383822,0.08467 0.423333,-0.09031 0.03951,-0.174978 -0.141111,-0.231422 -0.423333,-0.231423 z"
       id="path200-1" />
    <path
       style="font-size:5.64444px;font-family:Monospace;-inkscape-font-specification:Comfortaa;fill:#ffffff;stroke-width:11.3;stroke-linecap:square"
       d="m 22.48213,5.7347623 c 0.124178,0 0.220133,-0.09595 0.220133,-0.220133 v -5.294486 c 0,-0.124177 -0.09596,-0.220132 -0.220133,-0.220132 h -0.891821 c -0.124178,0 -0.225778,0.09595 -0.225778,0.220132 0,0.124179 0.1016,0.225779 0.225778,0.225779 h 0.671689 v 4.842928 h -0.671689 c -0.124178,0 -0.225778,0.101601 -0.225778,0.225779 0,0.124178 0.1016,0.220133 0.225778,0.220133 z"
       id="path201-2" />
    <path
       style="font-size:5.64444px;font-family:Monospace;-inkscape-font-specification:'Comfortaa Light';fill:#ffffff;stroke-width:11.3;stroke-linecap:square"
       d="m 15.392707,4.44783 c 0.897466,0 1.574799,-0.677333 1.574799,-1.574799 0,-0.90311 -0.677333,-1.580443 -1.574799,-1.580443 -0.90311,0 -1.580443,0.677333 -1.580443,1.580443 0,0.897466 0.677333,1.574799 1.580443,1.574799 z m 0,-0.316089 c -0.705555,0 -1.241777,-0.541866 -1.241777,-1.25871 0,-0.722488 0.536222,-1.264355 1.241777,-1.264355 0.705555,0 1.236133,0.541867 1.236133,1.264355 0,0.716844 -0.530578,1.25871 -1.236133,1.25871 z"
       id="path202-0" />
    <path
       style="fill:#ffffff;stroke:#ffffff;stroke-width:0.21;stroke-linecap:round;stroke-dasharray:none;stroke-opacity:1"
       d="M 16.862507,1.397587 13.917264,4.34283"
       id="path203-9" />
  </g>
</svg>
